REM DIRINDEX 1\2\4,1\2\5,1\2\6,1\3\7,1\3\8,1\3\9,1\3\10
REM DIRNAME cjc058,folder01,folder02,folder03,folder04,folder05,folder06,folder07,folder08,folder09
TITLE ""
FILE "b_45.mp3" MP3
  TRACK 01 AUDIO
    TITLE "0:"
    INDEX 01 00:00:00
  TRACK 02 AUDIO
    TITLE "10:cjc058_3919"
    INDEX 01 00:00:09
  TRACK 03 AUDIO
    TITLE "0:"
    INDEX 01 00:02:57
  TRACK 04 AUDIO
    TITLE "7:cjc058_3920"
    INDEX 01 00:03:29
  TRACK 05 AUDIO
    TITLE "0:"
    INDEX 01 00:05:12
  TRACK 06 AUDIO
    TITLE "8:cjc058_3921"
    INDEX 01 00:05:48
  TRACK 07 AUDIO
    TITLE "0:"
    INDEX 01 00:09:18
  TRACK 08 AUDIO
    TITLE "9:cjc058_3922"
    INDEX 01 00:09:65
  TRACK 09 AUDIO
    TITLE "0:"
    INDEX 01 00:15:09
  TRACK 10 AUDIO
    TITLE "7:cjc058_3923"
    INDEX 01 00:16:16
  TRACK 11 AUDIO
    TITLE "0:"
    INDEX 01 00:17:39
  TRACK 12 AUDIO
    TITLE "8:cjc058_3924"
    INDEX 01 00:17:70
  TRACK 13 AUDIO
    TITLE "0:"
    INDEX 01 00:20:47
  TRACK 14 AUDIO
    TITLE "9:cjc058_3925"
    INDEX 01 00:21:19
  TRACK 15 AUDIO
    TITLE "0:"
    INDEX 01 00:27:34
  TRACK 16 AUDIO
    TITLE "7:cjc058_3926"
    INDEX 01 00:28:41
  TRACK 17 AUDIO
    TITLE "0:"
    INDEX 01 00:30:34
  TRACK 18 AUDIO
    TITLE "8:cjc058_3927"
    INDEX 01 00:30:69
  TRACK 19 AUDIO
    TITLE "0:"
    INDEX 01 00:34:10
  TRACK 20 AUDIO
    TITLE "9:cjc058_3928"
    INDEX 01 00:34:55
  TRACK 21 AUDIO
    TITLE "0:"
    INDEX 01 00:40:13
  TRACK 22 AUDIO
    TITLE "7:cjc058_3929"
    INDEX 01 00:41:20
  TRACK 23 AUDIO
    TITLE "0:"
    INDEX 01 00:43:05
  TRACK 24 AUDIO
    TITLE "8:cjc058_3930"
    INDEX 01 00:43:40
  TRACK 25 AUDIO
    TITLE "0:"
    INDEX 01 00:46:58
  TRACK 26 AUDIO
    TITLE "9:cjc058_3931"
    INDEX 01 00:47:30
  TRACK 27 AUDIO
    TITLE "0:"
    INDEX 01 00:50:56
  TRACK 28 AUDIO
    TITLE "7:cjc058_3932"
    INDEX 01 00:51:62
  TRACK 29 AUDIO
    TITLE "0:"
    INDEX 01 00:53:39
  TRACK 30 AUDIO
    TITLE "8:cjc058_3933"
    INDEX 01 00:53:68
  TRACK 31 AUDIO
    TITLE "0:"
    INDEX 01 00:56:16
  TRACK 32 AUDIO
    TITLE "9:cjc058_3934"
    INDEX 01 00:56:61
  TRACK 33 AUDIO
    TITLE "0:"
    INDEX 01 01:00:62
  TRACK 34 AUDIO
    TITLE "7:cjc058_3935"
    INDEX 01 01:01:68
  TRACK 35 AUDIO
    TITLE "0:"
    INDEX 01 01:03:16
  TRACK 36 AUDIO
    TITLE "8:cjc058_3936"
    INDEX 01 01:03:51
  TRACK 37 AUDIO
    TITLE "0:"
    INDEX 01 01:06:10
  TRACK 38 AUDIO
    TITLE "9:cjc058_3937"
    INDEX 01 01:06:53
  TRACK 39 AUDIO
    TITLE "0:"
    INDEX 01 01:12:19
  TRACK 40 AUDIO
    TITLE "7:cjc058_3938"
    INDEX 01 01:13:26
  TRACK 41 AUDIO
    TITLE "0:"
    INDEX 01 01:15:11
  TRACK 42 AUDIO
    TITLE "8:cjc058_3939"
    INDEX 01 01:15:46
  TRACK 43 AUDIO
    TITLE "0:"
    INDEX 01 01:19:27
  TRACK 44 AUDIO
    TITLE "9:cjc058_3940"
    INDEX 01 01:19:74
  TRACK 45 AUDIO
    TITLE "0:"
    INDEX 01 01:24:32
  TRACK 46 AUDIO
    TITLE "7:cjc058_3941"
    INDEX 01 01:25:39
  TRACK 47 AUDIO
    TITLE "0:"
    INDEX 01 01:27:12
  TRACK 48 AUDIO
    TITLE "8:cjc058_3942"
    INDEX 01 01:27:48
  TRACK 49 AUDIO
    TITLE "0:"
    INDEX 01 01:30:56
  TRACK 50 AUDIO
    TITLE "9:cjc058_3943"
    INDEX 01 01:31:28
  TRACK 51 AUDIO
    TITLE "0:"
    INDEX 01 01:37:11
  TRACK 52 AUDIO
    TITLE "7:cjc058_3944"
    INDEX 01 01:38:20
  TRACK 53 AUDIO
    TITLE "0:"
    INDEX 01 01:39:61
  TRACK 54 AUDIO
    TITLE "8:cjc058_3945"
    INDEX 01 01:40:21
  TRACK 55 AUDIO
    TITLE "0:"
    INDEX 01 01:42:47
  TRACK 56 AUDIO
    TITLE "9:cjc058_3946"
    INDEX 01 01:43:19
  TRACK 57 AUDIO
    TITLE "0:"
    INDEX 01 01:48:26
  TRACK 58 AUDIO
    TITLE "7:cjc058_3947"
    INDEX 01 01:49:35
  TRACK 59 AUDIO
    TITLE "0:"
    INDEX 01 01:50:43
  TRACK 60 AUDIO
    TITLE "8:cjc058_3948"
    INDEX 01 01:51:03
  TRACK 61 AUDIO
    TITLE "0:"
    INDEX 01 01:53:67
  TRACK 62 AUDIO
    TITLE "9:cjc058_3949"
    INDEX 01 01:54:35
  TRACK 63 AUDIO
    TITLE "0:"
    INDEX 01 01:59:14
  TRACK 64 AUDIO
    TITLE "7:cjc058_3950"
    INDEX 01 02:00:22
  TRACK 65 AUDIO
    TITLE "0:"
    INDEX 01 02:01:31
  TRACK 66 AUDIO
    TITLE "8:cjc058_3951"
    INDEX 01 02:01:66
  TRACK 67 AUDIO
    TITLE "0:"
    INDEX 01 02:04:04
  TRACK 68 AUDIO
    TITLE "9:cjc058_3952"
    INDEX 01 02:04:45
  TRACK 69 AUDIO
    TITLE "0:"
    INDEX 01 02:09:38
  TRACK 70 AUDIO
    TITLE "7:cjc058_3953"
    INDEX 01 02:10:43
  TRACK 71 AUDIO
    TITLE "0:"
    INDEX 01 02:11:63
  TRACK 72 AUDIO
    TITLE "8:cjc058_3954"
    INDEX 01 02:12:23
  TRACK 73 AUDIO
    TITLE "0:"
    INDEX 01 02:15:43
  TRACK 74 AUDIO
    TITLE "9:cjc058_3955"
    INDEX 01 02:16:15
  TRACK 75 AUDIO
    TITLE "0:"
    INDEX 01 02:19:03
  TRACK 76 AUDIO
    TITLE "7:cjc058_3956"
    INDEX 01 02:20:11
  TRACK 77 AUDIO
    TITLE "0:"
    INDEX 01 02:21:33
  TRACK 78 AUDIO
    TITLE "8:cjc058_3957"
    INDEX 01 02:21:69
  TRACK 79 AUDIO
    TITLE "0:"
    INDEX 01 02:27:11
  TRACK 80 AUDIO
    TITLE "9:cjc058_3958"
    INDEX 01 02:27:58
  TRACK 81 AUDIO
    TITLE "0:"
    INDEX 01 02:30:52
  TRACK 82 AUDIO
    TITLE "7:cjc058_3959"
    INDEX 01 02:31:57
  TRACK 83 AUDIO
    TITLE "0:"
    INDEX 01 02:33:01
  TRACK 84 AUDIO
    TITLE "8:cjc058_3960"
    INDEX 01 02:33:37
  TRACK 85 AUDIO
    TITLE "0:"
    INDEX 01 02:36:21
  TRACK 86 AUDIO
    TITLE "9:cjc058_3961"
    INDEX 01 02:36:64
  TRACK 87 AUDIO
    TITLE "0:"
    INDEX 01 02:40:54
  TRACK 88 AUDIO
    TITLE "7:cjc058_3962"
    INDEX 01 02:41:62
  TRACK 89 AUDIO
    TITLE "0:"
    INDEX 01 02:43:00
  TRACK 90 AUDIO
    TITLE "8:cjc058_3963"
    INDEX 01 02:43:35
  TRACK 91 AUDIO
    TITLE "0:"
    INDEX 01 02:46:37
  TRACK 92 AUDIO
    TITLE "9:cjc058_3964"
    INDEX 01 02:47:09
  TRACK 93 AUDIO
    TITLE "0:"
    INDEX 01 02:52:28
  TRACK 94 AUDIO
    TITLE "7:cjc058_3965"
    INDEX 01 02:53:37
  TRACK 95 AUDIO
    TITLE "0:"
    INDEX 01 02:54:51
  TRACK 96 AUDIO
    TITLE "8:cjc058_3966"
    INDEX 01 02:55:11
  TRACK 97 AUDIO
    TITLE "0:"
    INDEX 01 02:59:07
  TRACK 98 AUDIO
    TITLE "9:cjc058_3967"
    INDEX 01 02:59:50
  TRACK 99 AUDIO
    TITLE "0:"
    INDEX 01 03:03:36
  TRACK 100 AUDIO
    TITLE "7:cjc058_3968"
    INDEX 01 03:04:47
  TRACK 101 AUDIO
    TITLE "0:"
    INDEX 01 03:06:18
  TRACK 102 AUDIO
    TITLE "8:cjc058_3969"
    INDEX 01 03:06:50
  TRACK 103 AUDIO
    TITLE "0:"
    INDEX 01 03:10:73
  TRACK 104 AUDIO
    TITLE "9:cjc058_3970"
    INDEX 01 03:11:47
  TRACK 105 AUDIO
    TITLE "0:"
    INDEX 01 03:17:56
  TRACK 106 AUDIO
    TITLE "7:cjc058_3971"
    INDEX 01 03:18:65
  TRACK 107 AUDIO
    TITLE "0:"
    INDEX 01 03:20:32
  TRACK 108 AUDIO
    TITLE "8:cjc058_3972"
    INDEX 01 03:20:68
  TRACK 109 AUDIO
    TITLE "0:"
    INDEX 01 03:21:73
  TRACK 110 AUDIO
    TITLE "9:cjc058_3973"
    INDEX 01 03:22:45
  TRACK 111 AUDIO
    TITLE "0:"
    INDEX 01 03:26:66
  TRACK 112 AUDIO
    TITLE "7:cjc058_3974"
    INDEX 01 03:28:02
  TRACK 113 AUDIO
    TITLE "0:"
    INDEX 01 03:29:14
  TRACK 114 AUDIO
    TITLE "8:cjc058_3975"
    INDEX 01 03:29:47
  TRACK 115 AUDIO
    TITLE "0:"
    INDEX 01 03:32:49
  TRACK 116 AUDIO
    TITLE "9:cjc058_3976"
    INDEX 01 03:33:21
  TRACK 117 AUDIO
    TITLE "0:"
    INDEX 01 03:38:36
  TRACK 118 AUDIO
    TITLE "7:cjc058_3977"
    INDEX 01 03:39:43
  TRACK 119 AUDIO
    TITLE "0:"
    INDEX 01 03:40:51
  TRACK 120 AUDIO
    TITLE "8:cjc058_3978"
    INDEX 01 03:41:11
  TRACK 121 AUDIO
    TITLE "0:"
    INDEX 01 03:45:11
  TRACK 122 AUDIO
    TITLE "9:cjc058_3979"
    INDEX 01 03:45:52
  TRACK 123 AUDIO
    TITLE "0:"
    INDEX 01 03:48:50
  TRACK 124 AUDIO
    TITLE "7:cjc058_3980"
    INDEX 01 03:49:57
  TRACK 125 AUDIO
    TITLE "0:"
    INDEX 01 03:51:17
  TRACK 126 AUDIO
    TITLE "8:cjc058_3981"
    INDEX 01 03:51:51
  TRACK 127 AUDIO
    TITLE "0:"
    INDEX 01 03:54:02
  TRACK 128 AUDIO
    TITLE "9:cjc058_3982"
    INDEX 01 03:54:51
  TRACK 129 AUDIO
    TITLE "0:"
    INDEX 01 03:57:63
  TRACK 130 AUDIO
    TITLE "7:cjc058_3983"
    INDEX 01 03:58:68
  TRACK 131 AUDIO
    TITLE "0:"
    INDEX 01 04:00:32
  TRACK 132 AUDIO
    TITLE "8:cjc058_3984"
    INDEX 01 04:00:67
  TRACK 133 AUDIO
    TITLE "0:"
    INDEX 01 04:03:03
  TRACK 134 AUDIO
    TITLE "9:cjc058_3985"
    INDEX 01 04:03:50
  TRACK 135 AUDIO
    TITLE "0:"
    INDEX 01 04:10:20
  TRACK 136 AUDIO
    TITLE "7:cjc058_3986"
    INDEX 01 04:11:28
  TRACK 137 AUDIO
    TITLE "0:"
    INDEX 01 04:12:70
  TRACK 138 AUDIO
    TITLE "8:cjc058_3987"
    INDEX 01 04:13:31
  TRACK 139 AUDIO
    TITLE "0:"
    INDEX 01 04:14:67
  TRACK 140 AUDIO
    TITLE "9:cjc058_3988"
    INDEX 01 04:15:41
  TRACK 141 AUDIO
    TITLE "0:"
    INDEX 01 04:19:23
  TRACK 142 AUDIO
    TITLE "7:cjc058_3989"
    INDEX 01 04:20:29
  TRACK 143 AUDIO
    TITLE "0:"
    INDEX 01 04:22:04
  TRACK 144 AUDIO
    TITLE "8:cjc058_3990"
    INDEX 01 04:22:39
  TRACK 145 AUDIO
    TITLE "0:"
    INDEX 01 04:23:66
  TRACK 146 AUDIO
    TITLE "9:cjc058_3991"
    INDEX 01 04:24:38
  TRACK 147 AUDIO
    TITLE "0:"
    INDEX 01 04:30:31
  TRACK 148 AUDIO
    TITLE "7:cjc058_3992"
    INDEX 01 04:31:38
  TRACK 149 AUDIO
    TITLE "0:"
    INDEX 01 04:32:49
  TRACK 150 AUDIO
    TITLE "8:cjc058_3993"
    INDEX 01 04:33:10
  TRACK 151 AUDIO
    TITLE "0:"
    INDEX 01 04:36:36
  TRACK 152 AUDIO
    TITLE "9:cjc058_3994"
    INDEX 01 04:37:08
  TRACK 153 AUDIO
    TITLE "0:"
    INDEX 01 04:40:61
  TRACK 154 AUDIO
    TITLE "7:cjc058_3995"
    INDEX 01 04:41:68
  TRACK 155 AUDIO
    TITLE "0:"
    INDEX 01 04:43:34
  TRACK 156 AUDIO
    TITLE "8:cjc058_3996"
    INDEX 01 04:43:69
  TRACK 157 AUDIO
    TITLE "0:"
    INDEX 01 04:47:14
  TRACK 158 AUDIO
    TITLE "9:cjc058_3997"
    INDEX 01 04:47:61
  TRACK 159 AUDIO
    TITLE "0:"
    INDEX 01 04:54:16
  TRACK 160 AUDIO
    TITLE "7:cjc058_3998"
    INDEX 01 04:55:25
  TRACK 161 AUDIO
    TITLE "0:"
    INDEX 01 04:56:68
  TRACK 162 AUDIO
    TITLE "8:cjc058_3999"
    INDEX 01 04:57:28
  TRACK 163 AUDIO
    TITLE "0:"
    INDEX 01 05:01:00
  TRACK 164 AUDIO
    TITLE "9:cjc058_4000"
    INDEX 01 05:01:49
  TRACK 165 AUDIO
    TITLE "0:"
    INDEX 01 05:06:72
  TRACK 166 AUDIO
    TITLE "7:cjc058_4001"
    INDEX 01 05:08:02
  TRACK 167 AUDIO
    TITLE "0:"
    INDEX 01 05:09:31
  TRACK 168 AUDIO
    TITLE "8:cjc058_4002"
    INDEX 01 05:09:66
  TRACK 169 AUDIO
    TITLE "0:"
    INDEX 01 05:12:57
  TRACK 170 AUDIO
    TITLE "9:cjc058_4003"
    INDEX 01 05:13:31
  TRACK 171 AUDIO
    TITLE "0:"
    INDEX 01 05:20:45
  TRACK 172 AUDIO
    TITLE "7:cjc058_4004"
    INDEX 01 05:21:50
  TRACK 173 AUDIO
    TITLE "0:"
    INDEX 01 05:23:41
  TRACK 174 AUDIO
    TITLE "8:cjc058_4005"
    INDEX 01 05:23:74
  TRACK 175 AUDIO
    TITLE "0:"
    INDEX 01 05:26:14
  TRACK 176 AUDIO
    TITLE "9:cjc058_4006"
    INDEX 01 05:26:63
  TRACK 177 AUDIO
    TITLE "0:"
    INDEX 01 05:29:63
